<?xml version="1.0" standalone="no"?>
<!DOCTYPE svg PUBLIC "-//W3C//DTD SVG 20010904//EN"
 "http://www.w3.org/TR/2001/REC-SVG-20010904/DTD/svg10.dtd">
<svg version="1.0" xmlns="http://www.w3.org/2000/svg"
 width="896.000000pt" height="896.000000pt" viewBox="0 0 896.000000 896.000000"
 preserveAspectRatio="xMidYMid meet">
<metadata>
Created by potrace 1.14, written by Peter Selinger 2001-2017
</metadata>
<g transform="translate(0.000000,896.000000) scale(0.100000,-0.100000)"
fill="#000000" stroke="none">
<path d="M2759 7445 c-2 -2 -35 -6 -74 -10 -72 -6 -117 -12 -170 -22 -16 -3
-41 -6 -55 -8 -14 -1 -38 -5 -55 -9 -16 -3 -41 -8 -54 -11 -13 -2 -60 -14
-105 -26 -45 -11 -85 -22 -91 -23 -38 -8 -255 -84 -330 -116 -71 -30 -301
-145 -303 -152 -2 -4 -8 -8 -13 -8 -10 0 -179 -102 -219 -132 -14 -11 -59 -44
-100 -74 -41 -30 -101 -78 -135 -106 -84 -73 -302 -292 -355 -358 -25 -30 -47
-57 -50 -60 -4 -3 -19 -23 -35 -45 -17 -22 -33 -42 -36 -45 -7 -7 -158 -238
-183 -281 -48 -84 -120 -229 -157 -318 -22 -53 -44 -105 -49 -116 -11 -26 -61
-175 -65 -195 -2 -8 -10 -40 -19 -71 -9 -31 -19 -67 -22 -80 -3 -13 -6 -28 -8
-34 -11 -43 -35 -166 -42 -220 -2 -22 -7 -49 -9 -60 -19 -92 -27 -533 -12
-680 42 -424 185 -862 400 -1220 54 -91 154 -243 167 -255 3 -3 30 -36 60 -75
30 -38 66 -83 80 -100 34 -41 254 -260 314 -313 100 -89 352 -272 375 -272 5
0 11 -4 13 -8 10 -25 423 -232 462 -232 9 0 16 -4 16 -8 0 -5 6 -9 13 -10 6 0
59 -17 117 -37 124 -42 336 -97 430 -110 8 -1 35 -6 60 -10 144 -23 245 -30
450 -30 183 0 338 8 402 20 12 3 40 7 63 10 22 3 47 8 55 10 8 2 32 6 54 10
21 3 41 7 45 9 3 2 22 7 41 10 193 31 615 193 801 308 35 21 53 27 62 20 21
-18 260 -137 337 -169 153 -64 281 -107 410 -138 293 -72 441 -89 755 -89 185
0 368 9 384 19 4 2 31 6 61 10 30 4 57 8 60 10 3 2 26 6 50 10 25 3 90 18 145
32 55 14 105 26 110 27 12 3 84 25 105 33 8 3 21 7 29 9 12 2 98 34 146 54
106 45 168 73 275 128 69 35 127 68 128 73 2 5 8 9 14 9 19 0 292 187 344 235
6 5 31 26 55 45 45 36 308 295 344 340 147 182 209 269 290 405 51 85 153 277
152 285 0 3 9 23 20 45 18 35 92 224 98 250 1 6 5 17 8 25 10 25 67 233 72
262 3 16 12 56 19 90 8 35 14 70 14 78 0 8 3 29 6 45 38 198 44 612 11 835 -2
14 -6 41 -9 60 -33 233 -115 523 -202 718 -122 272 -233 458 -403 677 -91 116
-299 332 -416 431 -86 73 -76 65 -165 129 -41 30 -80 59 -87 65 -23 19 -195
121 -296 174 -171 91 -488 214 -584 227 -5 1 -19 6 -33 11 -33 13 -200 48
-300 63 -14 2 -44 6 -68 10 -24 4 -62 9 -85 12 -67 8 -526 8 -592 0 -112 -14
-126 -16 -168 -22 -23 -4 -72 -13 -109 -21 -37 -7 -80 -16 -95 -19 -16 -2 -68
-16 -118 -30 -49 -14 -97 -27 -105 -29 -50 -14 -199 -69 -285 -106 -115 -49
-308 -149 -313 -161 -7 -16 -33 -9 -90 24 -156 90 -494 231 -628 262 -10 2
-53 13 -94 25 -41 11 -88 22 -105 25 -16 3 -41 8 -55 10 -14 3 -34 7 -45 9
-19 4 -119 18 -215 32 -49 7 -505 15 -511 9z m347 -250 c82 -2 158 -6 169 -9
11 -2 47 -7 80 -11 32 -3 67 -10 76 -15 9 -5 19 -7 21 -4 8 7 216 -41 333 -77
166 -51 456 -177 454 -197 0 -4 -46 -42 -102 -85 -140 -106 -333 -295 -442
-432 -21 -28 -42 -52 -45 -55 -14 -13 -180 -247 -180 -254 0 -2 -17 -33 -38
-67 -22 -35 -60 -107 -86 -159 -27 -52 -52 -103 -57 -112 -41 -80 -166 -441
-182 -528 -3 -14 -12 -56 -21 -95 -8 -38 -18 -88 -21 -110 -3 -22 -7 -53 -10
-70 -22 -145 -29 -241 -29 -430 0 -250 16 -416 59 -615 3 -14 7 -36 10 -50 33
-178 143 -484 247 -685 84 -164 252 -433 293 -470 6 -5 24 -28 40 -50 16 -22
41 -52 57 -68 15 -15 26 -27 23 -27 -2 0 28 -34 68 -76 122 -130 216 -215 334
-306 45 -35 82 -67 82 -71 1 -8 -220 -115 -249 -121 -7 -2 -70 -26 -95 -37
-99 -42 -397 -115 -555 -134 -30 -4 -73 -9 -95 -12 -53 -7 -508 -6 -560 1 -22
3 -58 8 -80 10 -58 8 -107 16 -135 22 -14 3 -38 8 -55 11 -148 23 -415 114
-605 206 -58 27 -107 51 -110 51 -28 7 -332 202 -338 218 -2 4 -8 8 -14 8 -6
0 -25 12 -42 27 -18 16 -52 44 -76 63 -88 70 -322 309 -390 400 -14 19 -34 45
-46 59 -31 39 -116 167 -164 245 -51 84 -180 348 -180 368 0 8 -4 18 -8 23 -9
11 -36 84 -75 210 -25 80 -71 275 -82 350 -3 22 -8 54 -10 70 -14 85 -18 159
-19 355 -1 186 8 373 19 391 2 3 6 27 10 55 3 27 7 56 10 64 2 8 7 29 10 45 8
50 12 67 34 150 12 44 24 88 26 97 9 38 70 206 96 266 15 34 25 62 21 62 -4 0
-2 4 3 8 6 4 27 43 49 87 45 95 146 269 158 273 4 2 8 8 8 13 0 15 122 182
205 279 78 91 259 266 354 342 122 97 207 158 220 158 5 0 11 4 13 9 11 31
466 261 563 285 6 1 42 13 80 25 39 12 77 24 85 26 8 2 60 15 115 29 157 40
324 64 494 72 58 2 107 7 109 9 3 2 8 2 12 0 4 -3 75 -7 156 -10z m3164 -9
c14 -2 52 -7 85 -11 33 -4 69 -9 80 -11 11 -3 43 -9 70 -14 74 -15 85 -17 150
-33 197 -49 395 -125 585 -223 124 -65 380 -229 432 -278 15 -15 29 -26 32
-26 21 0 314 -293 400 -400 153 -192 295 -429 389 -650 91 -214 168 -492 192
-700 3 -25 8 -65 12 -90 16 -103 8 -526 -12 -650 -2 -14 -7 -41 -10 -60 -2
-19 -7 -46 -10 -60 -3 -14 -8 -40 -11 -59 -9 -51 -11 -60 -33 -143 -25 -93
-89 -286 -111 -333 -56 -123 -76 -167 -97 -210 -28 -59 -87 -166 -100 -180 -5
-5 -24 -35 -42 -65 -33 -54 -150 -215 -201 -275 -47 -56 -295 -300 -345 -340
-27 -22 -52 -42 -55 -45 -29 -34 -388 -265 -411 -265 -4 0 -11 -3 -15 -8 -36
-35 -452 -197 -571 -222 -10 -2 -61 -13 -113 -24 -52 -11 -113 -23 -135 -26
-22 -2 -49 -7 -60 -9 -142 -29 -597 -29 -770 0 -16 3 -41 7 -55 9 -51 7 -97
16 -180 36 -47 11 -92 22 -100 24 -127 27 -529 193 -537 222 -1 4 34 35 79 68
148 110 349 305 463 450 22 28 43 52 46 55 16 12 166 233 214 315 47 79 138
251 140 265 1 3 9 23 19 45 49 111 112 280 121 325 2 8 10 35 18 60 14 42 46
171 52 215 2 11 9 45 15 75 15 78 28 175 37 272 14 158 7 531 -11 628 -3 14
-7 43 -10 65 -12 98 -18 132 -26 160 -5 17 -12 46 -15 65 -3 19 -11 53 -17 75
-5 22 -11 45 -12 50 -10 43 -37 130 -64 205 -3 8 -6 20 -7 25 -13 59 -152 357
-223 480 -90 155 -233 356 -340 476 -116 131 -370 363 -449 411 -18 11 -33 24
-33 29 0 10 133 79 154 79 7 0 19 7 26 15 7 8 20 15 29 15 9 0 28 7 43 14 35
19 266 97 294 101 11 1 25 5 31 8 5 3 25 9 44 12 19 3 50 10 69 15 19 5 51 11
70 14 109 18 182 28 240 32 36 3 66 7 68 9 5 5 452 -3 482 -9z m-1690 -510
c147 -105 363 -304 478 -442 146 -174 344 -494 402 -649 7 -19 -187 168 -545
525 -543 542 -555 555 -533 570 12 8 38 27 57 41 20 15 41 24 46 21 6 -3 48
-33 95 -66z m1075 -1756 c4 -36 9 -74 11 -85 8 -37 13 -109 19 -264 5 -115 3
-152 -5 -149 -7 2 -414 406 -905 897 l-892 893 41 46 c23 25 82 88 131 139
l90 93 751 -753 752 -752 7 -65z m-961 91 c532 -533 966 -973 963 -978 -3 -5
-8 -26 -11 -48 -8 -52 -70 -302 -85 -337 -10 -27 -23 -15 -1021 984 -555 556
-1010 1014 -1010 1019 0 20 177 329 189 329 3 0 442 -436 975 -969z m-262
-663 l1011 -1012 -48 -95 c-59 -116 -138 -250 -146 -251 -4 0 -100 94 -215
209 -115 116 -552 554 -971 974 l-762 764 20 94 c18 89 76 305 86 322 2 4 6 7
9 7 3 0 460 -455 1016 -1012z m-35 -901 l685 -687 -38 -47 c-56 -69 -205 -223
-215 -223 -5 0 -349 340 -765 756 -501 501 -759 765 -764 784 -5 16 -11 57
-15 92 -4 35 -9 72 -11 83 -6 29 -14 358 -8 366 2 4 103 -93 225 -214 121
-122 529 -531 906 -910z m-357 -567 c314 -314 570 -574 570 -578 0 -4 -30 -27
-65 -51 l-65 -44 -37 26 c-101 69 -128 88 -133 95 -3 4 -30 27 -60 52 -216
175 -455 450 -584 668 -17 30 -43 75 -59 100 -41 71 -150 302 -142 302 3 0
262 -257 575 -570z"/>
</g>
</svg>
