<svg  xmlns="http://www.w3.org/2000/svg" width="375.5999999999999" height="183.86067704687503" viewBox="0 0 350 171.32917190204012" class="css-1j8o68f"><defs id="SvgjsDefs2353"></defs><g id="SvgjsG2354" featurekey="symbolFeature-0" transform="matrix(0.15930813862230575,0,0,0.15930813862230575,105,-7.296312627359139)" fill="#55b3f3"><g>    <path d="M587.1,45.8c-52.2,0-103.5,13.8-148.2,40.5c-43.8-25.9-95.1-40.5-147.2-40.5C130.8,45.8,0,176.5,0,337.4         c0,160.9,130.8,291.7,291.7,291.7c52,0,103.1-13.7,147.7-40.2c44.6,26.5,95.7,40.2,147.7,40.2c160.9,0,291.7-130.8,291.7-291.7         C878.8,176.5,748,45.8,587.1,45.8z M439.4,559.9c-46.1-30.9-80.6-74-100.4-123.3l113.7,113.7C448.4,553.6,443.9,556.8,439.4,559.9z          M473.4,532.7L323.8,383.2c-2.6-15-3.9-30.3-3.9-45.8c0-3.6,0.1-7.2,0.2-10.8l178.4,179.1C490.8,515.3,482.4,524.3,473.4,532.7z          M514.7,483.7L323.8,292.1c2.5-14.5,6.1-28.6,10.9-42.3l199.2,199.2C528.3,461,521.9,472.6,514.7,483.7z M544.6,421.5L345.8,222.6         c5.5-11.5,11.8-22.6,18.9-33.3l190.1,190.1C552.5,393.8,549.1,407.9,544.6,421.5z M380.9,167.4c7.9-9.6,16.5-18.7,25.8-27.3         l146.6,146.6c3.1,16.5,4.7,33.4,4.7,50.7c0,2.3,0,4.6-0.1,7L380.9,167.4z M427.6,122.8c3.7-2.8,7.6-5.5,11.5-8.2         c44.6,29.3,78.1,70.3,98,117.6L427.6,122.8z M24.5,337.4C24.5,189.7,144,70.2,291.7,70.2c44.2,0,86.6,10.3,125.1,31         c-76.2,54.6-120.4,142.1-120.4,236.2S341.6,519,416.8,573.6c-38.6,20.7-81.9,31-125.1,31C144,604.7,24.5,485.2,24.5,337.4z          M587.1,604.7c-44.2,0-86.6-10.3-125.1-31c76.2-54.6,120.4-142.1,120.4-236.2S538.2,155.8,462,101.3c38.6-20.7,80.9-31,125.1-31         c147.7,0,267.2,119.5,267.2,267.2C854.4,485.2,734.9,604.7,587.1,604.7z"></path></g></g><g id="SvgjsG2355" featurekey="nameFeature-0" transform="matrix(2.0831844269757926,0,0,2.0831844269757926,-2.583150199326391,87.50182706397834)" fill="#111111"><path d="M12.2 34.68 c3.28 -5.76 4.88 -11.72 5.52 -18.32 c0.24 -2.44 0.4 -4 2.92 -4 c1.4 0 2.52 0.8 2.52 2.88 c0 5.48 -3.28 16.04 -6.12 20.84 c-1.36 2.28 -2.32 4.16 -4.84 4.16 s-3.48 -1.88 -4.84 -4.16 c-2.84 -4.8 -6.12 -15.36 -6.12 -20.84 c0 -2.08 1.12 -2.88 2.52 -2.88 c2.52 0 2.68 1.56 2.92 4 c0.64 6.6 2.24 12.56 5.52 18.32 z M33.202 17.04 l0 3.44 l9.6 0 c1.36 0 2.44 0.72 2.44 2.28 s-1.08 2.28 -2.44 2.28 l-9.6 0 l0 10.4 l10 0 c1.36 0 2.44 0.72 2.44 2.28 s-1.08 2.28 -2.44 2.28 l-11.8 0 c-2.64 0 -3.48 -1.36 -3.48 -3.44 l0 -21.36 c0 -1.52 0.84 -2.72 2.2 -2.72 l13.08 0 c1.36 0 2.44 0.72 2.44 2.28 s-1.08 2.28 -2.44 2.28 l-10 0 z M70.004 15.120000000000001 l0 22.24 c0 1.56 -0.8 2.76 -2.52 2.76 s-2.52 -1.2 -2.52 -2.76 l0 -12.68 c-3.28 -0.36 -6.64 -2.64 -9.28 -5.72 l0 18.4 c0 1.56 -0.8 2.76 -2.52 2.76 s-2.52 -1.2 -2.52 -2.76 l0 -22.24 c0.08 -1.56 1.04 -2.76 3.24 -2.76 c3.92 0 4.36 5.88 11.08 7.76 l0 -5 c0 -1.56 0.8 -2.76 2.52 -2.76 s2.52 1.2 2.52 2.76 z M95.16600000000001 15.120000000000001 l0 22.24 c0 1.56 -0.8 2.76 -2.52 2.76 s-2.52 -1.2 -2.52 -2.76 l0 -12.68 c-3.28 -0.36 -6.64 -2.64 -9.28 -5.72 l0 18.4 c0 1.56 -0.8 2.76 -2.52 2.76 s-2.52 -1.2 -2.52 -2.76 l0 -22.24 c0.08 -1.56 1.04 -2.76 3.24 -2.76 c3.92 0 4.36 5.88 11.08 7.76 l0 -5 c0 -1.56 0.8 -2.76 2.52 -2.76 s2.52 1.2 2.52 2.76 z M119.08800000000002 17.28 l-7.44 0 c-4.32 0 -5.8 2.76 -5.8 6.88 c0 5.12 4.44 11.04 12.88 11.04 c2.28 0 3.24 1.04 3.24 2.4 c0 1.92 -1.48 2.64 -4.24 2.64 c-7.84 0 -17.56 -5.28 -17.56 -16.4 c0 -6.88 4.28 -11.36 10.04 -11.36 l8.88 0 c1.44 0 2.6 0.76 2.6 2.4 s-1.16 2.4 -2.6 2.4 z M132.69000000000003 28.32 l-1.04 0 c-1.08 2.92 -1.68 6.76 -1.96 9.44 c-0.16 1.48 -1 2.36 -2.44 2.36 c-2.16 0 -2.6 -1.28 -2.6 -3.2 c0 -1.24 0.68 -8.44 5.92 -18.32 c2.28 -4.32 3.56 -6.36 6.36 -6.36 c2.32 0 3.68 2.04 5.96 6.36 c5.24 9.88 6.32 17.08 6.32 18.32 c0 2.08 -1 3.2 -2.4 3.2 c-2 0 -2.48 -1.16 -2.88 -3.32 c-1.04 -5.76 -6.76 -8.48 -11.24 -8.48 z M132.85000000000002 24.32 l0.52 0 c1.96 0 5.4 0.56 8.04 2.72 l0.08 -0.08 c-1.2 -3.44 -2.72 -6.8 -4.68 -9.92 c-1.6 2.4 -2.92 4.8 -3.96 7.28 z M153.89200000000002 36.56 l0 -21.48 c0 -1.52 0.84 -2.72 2.52 -2.72 s2.52 1.2 2.52 2.72 l0 20.12 l7.72 0 c1.44 0 2.6 0.76 2.6 2.4 s-1.16 2.4 -2.6 2.4 l-9.28 0 c-2.64 0 -3.48 -1.36 -3.48 -3.44 z"></path></g></svg>